# xmcd
#
# Track frame offsets: 
#        150
#        10668
#        24786
#        39023
#        57131
#        64613
#        73064
#        89493
#        101923
#        122525
#        131971
#        145963
#
# Disc length: 2273 seconds
#
# Revision: 1
# Processed by: cddbd v1.5.2PL0 Copyright (c) Steve Scherf et al.
# Submitted via: ExactAudioCopy v0.95b4
#
DISCID=9d08df0c
DTITLE=The Coffinshakers - The Coffinshakers
DYEAR=2007
DGENRE=Horror Country
TTITLE0=Phantoms Of The Night
TTITLE1=Return Of The Vampire
TTITLE2=Last Night Down By The Grave
TTITLE3=Necromancy
TTITLE4=Evil
TTITLE5=Curse Of The Mummy's Tomb
TTITLE6=Walpurgis Night
TTITLE7=Voodoo Woman
TTITLE8=From Here To Hell
TTITLE9=King Of The Nighttime
TTITLE10=The Coffinshakers Theme
TTITLE11=Transylvania
EXTD=YEAR: 2007
EXTT0=
EXTT1=
EXTT2=
EXTT3=
EXTT4=
EXTT5=
EXTT6=
EXTT7=
EXTT8=
EXTT9=
EXTT10=
EXTT11=
PLAYORDER=
